<svg id="visual" viewBox="0 0 675 900" width="675" height="900" xmlns="http://www.w3.org/2000/svg" xmlns:xlink="http://www.w3.org/1999/xlink" version="1.1"><rect x="0" y="0" width="675" height="900" fill="#001220"></rect><path d="M0 282L16 290.8C32 299.7 64 317.3 96.2 320.7C128.3 324 160.7 313 192.8 308.2C225 303.3 257 304.7 289.2 310.8C321.3 317 353.7 328 385.8 323.8C418 319.7 450 300.3 482.2 305.3C514.3 310.3 546.7 339.7 578.8 345.3C611 351 643 333 659 324L675 315L675 0L659 0C643 0 611 0 578.8 0C546.7 0 514.3 0 482.2 0C450 0 418 0 385.8 0C353.7 0 321.3 0 289.2 0C257 0 225 0 192.8 0C160.7 0 128.3 0 96.2 0C64 0 32 0 16 0L0 0Z" fill="#001220"></path><path d="M0 196L16 214.5C32 233 64 270 96.2 273.2C128.3 276.3 160.7 245.7 192.8 229.3C225 213 257 211 289.2 224.3C321.3 237.7 353.7 266.3 385.8 278C418 289.7 450 284.3 482.2 278.3C514.3 272.3 546.7 265.7 578.8 257.8C611 250 643 241 659 236.5L675 232L675 0L659 0C643 0 611 0 578.8 0C546.7 0 514.3 0 482.2 0C450 0 418 0 385.8 0C353.7 0 321.3 0 289.2 0C257 0 225 0 192.8 0C160.7 0 128.3 0 96.2 0C64 0 32 0 16 0L0 0Z" fill="#141c3b"></path><path d="M0 203L16 192.2C32 181.3 64 159.7 96.2 154.8C128.3 150 160.7 162 192.8 168.2C225 174.3 257 174.7 289.2 179C321.3 183.3 353.7 191.7 385.8 201C418 210.3 450 220.7 482.2 209.5C514.3 198.3 546.7 165.7 578.8 164.7C611 163.7 643 194.3 659 209.7L675 225L675 0L659 0C643 0 611 0 578.8 0C546.7 0 514.3 0 482.2 0C450 0 418 0 385.8 0C353.7 0 321.3 0 289.2 0C257 0 225 0 192.8 0C160.7 0 128.3 0 96.2 0C64 0 32 0 16 0L0 0Z" fill="#3c1f4d"></path><path d="M0 120L16 123.8C32 127.7 64 135.3 96.2 144C128.3 152.7 160.7 162.3 192.8 158.3C225 154.3 257 136.7 289.2 126.7C321.3 116.7 353.7 114.3 385.8 123.7C418 133 450 154 482.2 150.5C514.3 147 546.7 119 578.8 105.8C611 92.7 643 94.3 659 95.2L675 96L675 0L659 0C643 0 611 0 578.8 0C546.7 0 514.3 0 482.2 0C450 0 418 0 385.8 0C353.7 0 321.3 0 289.2 0C257 0 225 0 192.8 0C160.7 0 128.3 0 96.2 0C64 0 32 0 16 0L0 0Z" fill="#69184f"></path><path d="M0 62L16 60.7C32 59.3 64 56.7 96.2 63.5C128.3 70.3 160.7 86.7 192.8 86.8C225 87 257 71 289.2 64.3C321.3 57.7 353.7 60.3 385.8 60.3C418 60.3 450 57.7 482.2 54.3C514.3 51 546.7 47 578.8 55.5C611 64 643 85 659 95.5L675 106L675 0L659 0C643 0 611 0 578.8 0C546.7 0 514.3 0 482.2 0C450 0 418 0 385.8 0C353.7 0 321.3 0 289.2 0C257 0 225 0 192.8 0C160.7 0 128.3 0 96.2 0C64 0 32 0 16 0L0 0Z" fill="#900c3f"></path></svg>