<svg id="visual" viewBox="0 0 900 600" width="900" height="600" xmlns="http://www.w3.org/2000/svg" xmlns:xlink="http://www.w3.org/1999/xlink" version="1.1"><path d="M0 181L13.7 177C27.3 173 54.7 165 82 158C109.3 151 136.7 145 163.8 140C191 135 218 131 245.2 127C272.3 123 299.7 119 327 108C354.3 97 381.7 79 409 70C436.3 61 463.7 61 491 68C518.3 75 545.7 89 573 98C600.3 107 627.7 111 654.8 113C682 115 709 115 736.2 122C763.3 129 790.7 143 818 145C845.3 147 872.7 137 886.3 132L900 127L900 0L886.3 0C872.7 0 845.3 0 818 0C790.7 0 763.3 0 736.2 0C709 0 682 0 654.8 0C627.7 0 600.3 0 573 0C545.7 0 518.3 0 491 0C463.7 0 436.3 0 409 0C381.7 0 354.3 0 327 0C299.7 0 272.3 0 245.2 0C218 0 191 0 163.8 0C136.7 0 109.3 0 82 0C54.7 0 27.3 0 13.7 0L0 0Z" fill="#900c3f"></path><path d="M0 277L13.7 274C27.3 271 54.7 265 82 272C109.3 279 136.7 299 163.8 315C191 331 218 343 245.2 339C272.3 335 299.7 315 327 311C354.3 307 381.7 319 409 312C436.3 305 463.7 279 491 265C518.3 251 545.7 249 573 241C600.3 233 627.7 219 654.8 227C682 235 709 265 736.2 280C763.3 295 790.7 295 818 301C845.3 307 872.7 319 886.3 325L900 331L900 125L886.3 130C872.7 135 845.3 145 818 143C790.7 141 763.3 127 736.2 120C709 113 682 113 654.8 111C627.7 109 600.3 105 573 96C545.7 87 518.3 73 491 66C463.7 59 436.3 59 409 68C381.7 77 354.3 95 327 106C299.7 117 272.3 121 245.2 125C218 129 191 133 163.8 138C136.7 143 109.3 149 82 156C54.7 163 27.3 171 13.7 175L0 179Z" fill="#aa005f"></path><path d="M0 313L13.7 312C27.3 311 54.7 309 82 320C109.3 331 136.7 355 163.8 379C191 403 218 427 245.2 430C272.3 433 299.7 415 327 401C354.3 387 381.7 377 409 365C436.3 353 463.7 339 491 331C518.3 323 545.7 321 573 318C600.3 315 627.7 311 654.8 320C682 329 709 351 736.2 357C763.3 363 790.7 353 818 363C845.3 373 872.7 403 886.3 418L900 433L900 329L886.3 323C872.7 317 845.3 305 818 299C790.7 293 763.3 293 736.2 278C709 263 682 233 654.8 225C627.7 217 600.3 231 573 239C545.7 247 518.3 249 491 263C463.7 277 436.3 303 409 310C381.7 317 354.3 305 327 309C299.7 313 272.3 333 245.2 337C218 341 191 329 163.8 313C136.7 297 109.3 277 82 270C54.7 263 27.3 269 13.7 272L0 275Z" fill="#bf0086"></path><path d="M0 361L13.7 366C27.3 371 54.7 381 82 401C109.3 421 136.7 451 163.8 473C191 495 218 509 245.2 505C272.3 501 299.7 479 327 475C354.3 471 381.7 485 409 472C436.3 459 463.7 419 491 396C518.3 373 545.7 367 573 374C600.3 381 627.7 401 654.8 411C682 421 709 421 736.2 426C763.3 431 790.7 441 818 458C845.3 475 872.7 499 886.3 511L900 523L900 431L886.3 416C872.7 401 845.3 371 818 361C790.7 351 763.3 361 736.2 355C709 349 682 327 654.8 318C627.7 309 600.3 313 573 316C545.7 319 518.3 321 491 329C463.7 337 436.3 351 409 363C381.7 375 354.3 385 327 399C299.7 413 272.3 431 245.2 428C218 425 191 401 163.8 377C136.7 353 109.3 329 82 318C54.7 307 27.3 309 13.7 310L0 311Z" fill="#c800b8"></path><path d="M0 601L13.7 601C27.3 601 54.7 601 82 601C109.3 601 136.7 601 163.8 601C191 601 218 601 245.2 601C272.3 601 299.7 601 327 601C354.3 601 381.7 601 409 601C436.3 601 463.7 601 491 601C518.3 601 545.7 601 573 601C600.3 601 627.7 601 654.8 601C682 601 709 601 736.2 601C763.3 601 790.7 601 818 601C845.3 601 872.7 601 886.3 601L900 601L900 521L886.3 509C872.7 497 845.3 473 818 456C790.7 439 763.3 429 736.2 424C709 419 682 419 654.8 409C627.7 399 600.3 379 573 372C545.7 365 518.3 371 491 394C463.7 417 436.3 457 409 470C381.7 483 354.3 469 327 473C299.7 477 272.3 499 245.2 503C218 507 191 493 163.8 471C136.7 449 109.3 419 82 399C54.7 379 27.3 369 13.7 364L0 359Z" fill="#b908f6"></path></svg>