<svg id="visual" viewBox="0 0 900 600" width="900" height="600" xmlns="http://www.w3.org/2000/svg" xmlns:xlink="http://www.w3.org/1999/xlink" version="1.1"><rect x="0" y="0" width="900" height="600" fill="#fff"></rect><path d="M0 231L21.5 231.3C43 231.7 86 232.3 128.8 230.5C171.7 228.7 214.3 224.3 257.2 223.3C300 222.3 343 224.7 385.8 216.8C428.7 209 471.3 191 514.2 192.8C557 194.7 600 216.3 642.8 223.7C685.7 231 728.3 224 771.2 219C814 214 857 211 878.5 209.5L900 208L900 0L878.5 0C857 0 814 0 771.2 0C728.3 0 685.7 0 642.8 0C600 0 557 0 514.2 0C471.3 0 428.7 0 385.8 0C343 0 300 0 257.2 0C214.3 0 171.7 0 128.8 0C86 0 43 0 21.5 0L0 0Z" fill="#ffffff"></path><path d="M0 186L21.5 177.8C43 169.7 86 153.3 128.8 154.2C171.7 155 214.3 173 257.2 171.5C300 170 343 149 385.8 150C428.7 151 471.3 174 514.2 177.7C557 181.3 600 165.7 642.8 158C685.7 150.3 728.3 150.7 771.2 148.2C814 145.7 857 140.3 878.5 137.7L900 135L900 0L878.5 0C857 0 814 0 771.2 0C728.3 0 685.7 0 642.8 0C600 0 557 0 514.2 0C471.3 0 428.7 0 385.8 0C343 0 300 0 257.2 0C214.3 0 171.7 0 128.8 0C86 0 43 0 21.5 0L0 0Z" fill="#d5c4ca"></path><path d="M0 138L21.5 133.5C43 129 86 120 128.8 111.7C171.7 103.3 214.3 95.7 257.2 91.7C300 87.7 343 87.3 385.8 88.8C428.7 90.3 471.3 93.7 514.2 98.3C557 103 600 109 642.8 110.8C685.7 112.7 728.3 110.3 771.2 117.5C814 124.7 857 141.3 878.5 149.7L900 158L900 0L878.5 0C857 0 814 0 771.2 0C728.3 0 685.7 0 642.8 0C600 0 557 0 514.2 0C471.3 0 428.7 0 385.8 0C343 0 300 0 257.2 0C214.3 0 171.7 0 128.8 0C86 0 43 0 21.5 0L0 0Z" fill="#ac8b97"></path><path d="M0 90L21.5 84.3C43 78.7 86 67.3 128.8 67.7C171.7 68 214.3 80 257.2 85.5C300 91 343 90 385.8 90.8C428.7 91.7 471.3 94.3 514.2 95C557 95.7 600 94.3 642.8 88.8C685.7 83.3 728.3 73.7 771.2 72.5C814 71.3 857 78.7 878.5 82.3L900 86L900 0L878.5 0C857 0 814 0 771.2 0C728.3 0 685.7 0 642.8 0C600 0 557 0 514.2 0C471.3 0 428.7 0 385.8 0C343 0 300 0 257.2 0C214.3 0 171.7 0 128.8 0C86 0 43 0 21.5 0L0 0Z" fill="#835567"></path><path d="M0 48L21.5 49.7C43 51.3 86 54.7 128.8 55.2C171.7 55.7 214.3 53.3 257.2 51C300 48.7 343 46.3 385.8 49.2C428.7 52 471.3 60 514.2 64C557 68 600 68 642.8 67.8C685.7 67.7 728.3 67.3 771.2 64.2C814 61 857 55 878.5 52L900 49L900 0L878.5 0C857 0 814 0 771.2 0C728.3 0 685.7 0 642.8 0C600 0 557 0 514.2 0C471.3 0 428.7 0 385.8 0C343 0 300 0 257.2 0C214.3 0 171.7 0 128.8 0C86 0 43 0 21.5 0L0 0Z" fill="#5a213b"></path></svg>