<svg id="visual" viewBox="0 0 900 600" width="900" height="600" xmlns="http://www.w3.org/2000/svg" xmlns:xlink="http://www.w3.org/1999/xlink" version="1.1"><rect x="0" y="0" width="900" height="600" fill="#001220"></rect><path d="M0 378L21.5 378C43 378 86 378 128.8 384.7C171.7 391.3 214.3 404.7 257.2 410.7C300 416.7 343 415.3 385.8 407.3C428.7 399.3 471.3 384.7 514.2 380.8C557 377 600 384 642.8 386C685.7 388 728.3 385 771.2 389.8C814 394.7 857 407.3 878.5 413.7L900 420L900 601L878.5 601C857 601 814 601 771.2 601C728.3 601 685.7 601 642.8 601C600 601 557 601 514.2 601C471.3 601 428.7 601 385.8 601C343 601 300 601 257.2 601C214.3 601 171.7 601 128.8 601C86 601 43 601 21.5 601L0 601Z" fill="#001220"></path><path d="M0 464L21.5 464.3C43 464.7 86 465.3 128.8 468C171.7 470.7 214.3 475.3 257.2 473C300 470.7 343 461.3 385.8 451.7C428.7 442 471.3 432 514.2 423.3C557 414.7 600 407.3 642.8 404.8C685.7 402.3 728.3 404.7 771.2 404.7C814 404.7 857 402.3 878.5 401.2L900 400L900 601L878.5 601C857 601 814 601 771.2 601C728.3 601 685.7 601 642.8 601C600 601 557 601 514.2 601C471.3 601 428.7 601 385.8 601C343 601 300 601 257.2 601C214.3 601 171.7 601 128.8 601C86 601 43 601 21.5 601L0 601Z" fill="#063447"></path><path d="M0 437L21.5 439.3C43 441.7 86 446.3 128.8 454.5C171.7 462.7 214.3 474.3 257.2 476.8C300 479.3 343 472.7 385.8 465.8C428.7 459 471.3 452 514.2 452.8C557 453.7 600 462.3 642.8 470C685.7 477.7 728.3 484.3 771.2 482.7C814 481 857 471 878.5 466L900 461L900 601L878.5 601C857 601 814 601 771.2 601C728.3 601 685.7 601 642.8 601C600 601 557 601 514.2 601C471.3 601 428.7 601 385.8 601C343 601 300 601 257.2 601C214.3 601 171.7 601 128.8 601C86 601 43 601 21.5 601L0 601Z" fill="#005a6d"></path><path d="M0 507L21.5 511C43 515 86 523 128.8 519.5C171.7 516 214.3 501 257.2 499.3C300 497.7 343 509.3 385.8 508.5C428.7 507.7 471.3 494.3 514.2 493.5C557 492.7 600 504.3 642.8 511.7C685.7 519 728.3 522 771.2 519.8C814 517.7 857 510.3 878.5 506.7L900 503L900 601L878.5 601C857 601 814 601 771.2 601C728.3 601 685.7 601 642.8 601C600 601 557 601 514.2 601C471.3 601 428.7 601 385.8 601C343 601 300 601 257.2 601C214.3 601 171.7 601 128.8 601C86 601 43 601 21.5 601L0 601Z" fill="#00838f"></path><path d="M0 562L21.5 556.7C43 551.3 86 540.7 128.8 538.8C171.7 537 214.3 544 257.2 550.5C300 557 343 563 385.8 565.3C428.7 567.7 471.3 566.3 514.2 562.8C557 559.3 600 553.7 642.8 551.2C685.7 548.7 728.3 549.3 771.2 551.8C814 554.3 857 558.7 878.5 560.8L900 563L900 601L878.5 601C857 601 814 601 771.2 601C728.3 601 685.7 601 642.8 601C600 601 557 601 514.2 601C471.3 601 428.7 601 385.8 601C343 601 300 601 257.2 601C214.3 601 171.7 601 128.8 601C86 601 43 601 21.5 601L0 601Z" fill="#28aea9"></path></svg>