<svg id="visual" viewBox="0 0 900 600" width="900" height="600" xmlns="http://www.w3.org/2000/svg" xmlns:xlink="http://www.w3.org/1999/xlink" version="1.1"><rect x="0" y="0" width="900" height="600" fill="#fff"></rect><path d="M0 350L21.5 354.8C43 359.7 86 369.3 128.8 381.7C171.7 394 214.3 409 257.2 409.2C300 409.3 343 394.7 385.8 398.7C428.7 402.7 471.3 425.3 514.2 423C557 420.7 600 393.3 642.8 387C685.7 380.7 728.3 395.3 771.2 395.7C814 396 857 382 878.5 375L900 368L900 601L878.5 601C857 601 814 601 771.2 601C728.3 601 685.7 601 642.8 601C600 601 557 601 514.2 601C471.3 601 428.7 601 385.8 601C343 601 300 601 257.2 601C214.3 601 171.7 601 128.8 601C86 601 43 601 21.5 601L0 601Z" fill="#ffffff"></path><path d="M0 470L21.5 468.8C43 467.7 86 465.3 128.8 458.7C171.7 452 214.3 441 257.2 442.8C300 444.7 343 459.3 385.8 459.7C428.7 460 471.3 446 514.2 432.5C557 419 600 406 642.8 403.8C685.7 401.7 728.3 410.3 771.2 419C814 427.7 857 436.3 878.5 440.7L900 445L900 601L878.5 601C857 601 814 601 771.2 601C728.3 601 685.7 601 642.8 601C600 601 557 601 514.2 601C471.3 601 428.7 601 385.8 601C343 601 300 601 257.2 601C214.3 601 171.7 601 128.8 601C86 601 43 601 21.5 601L0 601Z" fill="#d0e8e9"></path><path d="M0 489L21.5 489.8C43 490.7 86 492.3 128.8 493C171.7 493.7 214.3 493.3 257.2 488.7C300 484 343 475 385.8 475.3C428.7 475.7 471.3 485.3 514.2 483.3C557 481.3 600 467.7 642.8 470.3C685.7 473 728.3 492 771.2 491.3C814 490.7 857 470.3 878.5 460.2L900 450L900 601L878.5 601C857 601 814 601 771.2 601C728.3 601 685.7 601 642.8 601C600 601 557 601 514.2 601C471.3 601 428.7 601 385.8 601C343 601 300 601 257.2 601C214.3 601 171.7 601 128.8 601C86 601 43 601 21.5 601L0 601Z" fill="#a1d2d3"></path><path d="M0 528L21.5 523.3C43 518.7 86 509.3 128.8 508.2C171.7 507 214.3 514 257.2 519.3C300 524.7 343 528.3 385.8 522.8C428.7 517.3 471.3 502.7 514.2 500.5C557 498.3 600 508.7 642.8 508C685.7 507.3 728.3 495.7 771.2 496C814 496.3 857 508.7 878.5 514.8L900 521L900 601L878.5 601C857 601 814 601 771.2 601C728.3 601 685.7 601 642.8 601C600 601 557 601 514.2 601C471.3 601 428.7 601 385.8 601C343 601 300 601 257.2 601C214.3 601 171.7 601 128.8 601C86 601 43 601 21.5 601L0 601Z" fill="#6ebbbd"></path><path d="M0 567L21.5 561.7C43 556.3 86 545.7 128.8 539C171.7 532.3 214.3 529.7 257.2 531.3C300 533 343 539 385.8 539.3C428.7 539.7 471.3 534.3 514.2 536.3C557 538.3 600 547.7 642.8 552.7C685.7 557.7 728.3 558.3 771.2 555C814 551.7 857 544.3 878.5 540.7L900 537L900 601L878.5 601C857 601 814 601 771.2 601C728.3 601 685.7 601 642.8 601C600 601 557 601 514.2 601C471.3 601 428.7 601 385.8 601C343 601 300 601 257.2 601C214.3 601 171.7 601 128.8 601C86 601 43 601 21.5 601L0 601Z" fill="#28a5a8"></path></svg>