<svg id="visual" viewBox="0 0 900 600" width="900" height="600" xmlns="http://www.w3.org/2000/svg" xmlns:xlink="http://www.w3.org/1999/xlink" version="1.1"><rect x="0" y="0" width="900" height="600" fill="#1e1d1d"></rect><path d="M0 248L21.5 243.2C43 238.3 86 228.7 128.8 216.3C171.7 204 214.3 189 257.2 188.8C300 188.7 343 203.3 385.8 199.3C428.7 195.3 471.3 172.7 514.2 175C557 177.3 600 204.7 642.8 211C685.7 217.3 728.3 202.7 771.2 202.3C814 202 857 216 878.5 223L900 230L900 0L878.5 0C857 0 814 0 771.2 0C728.3 0 685.7 0 642.8 0C600 0 557 0 514.2 0C471.3 0 428.7 0 385.8 0C343 0 300 0 257.2 0C214.3 0 171.7 0 128.8 0C86 0 43 0 21.5 0L0 0Z" fill="#1e1d1d"></path><path d="M0 128L21.5 129.2C43 130.3 86 132.7 128.8 139.3C171.7 146 214.3 157 257.2 155.2C300 153.3 343 138.7 385.8 138.3C428.7 138 471.3 152 514.2 165.5C557 179 600 192 642.8 194.2C685.7 196.3 728.3 187.7 771.2 179C814 170.3 857 161.7 878.5 157.3L900 153L900 0L878.5 0C857 0 814 0 771.2 0C728.3 0 685.7 0 642.8 0C600 0 557 0 514.2 0C471.3 0 428.7 0 385.8 0C343 0 300 0 257.2 0C214.3 0 171.7 0 128.8 0C86 0 43 0 21.5 0L0 0Z" fill="#2e1f21"></path><path d="M0 109L21.5 108.2C43 107.3 86 105.7 128.8 105C171.7 104.3 214.3 104.7 257.2 109.3C300 114 343 123 385.8 122.7C428.7 122.3 471.3 112.7 514.2 114.7C557 116.7 600 130.3 642.8 127.7C685.7 125 728.3 106 771.2 106.7C814 107.3 857 127.7 878.5 137.8L900 148L900 0L878.5 0C857 0 814 0 771.2 0C728.3 0 685.7 0 642.8 0C600 0 557 0 514.2 0C471.3 0 428.7 0 385.8 0C343 0 300 0 257.2 0C214.3 0 171.7 0 128.8 0C86 0 43 0 21.5 0L0 0Z" fill="#3e2127"></path><path d="M0 70L21.5 74.7C43 79.3 86 88.7 128.8 89.8C171.7 91 214.3 84 257.2 78.7C300 73.3 343 69.7 385.8 75.2C428.7 80.7 471.3 95.3 514.2 97.5C557 99.7 600 89.3 642.8 90C685.7 90.7 728.3 102.3 771.2 102C814 101.7 857 89.3 878.5 83.2L900 77L900 0L878.5 0C857 0 814 0 771.2 0C728.3 0 685.7 0 642.8 0C600 0 557 0 514.2 0C471.3 0 428.7 0 385.8 0C343 0 300 0 257.2 0C214.3 0 171.7 0 128.8 0C86 0 43 0 21.5 0L0 0Z" fill="#4d212f"></path><path d="M0 31L21.5 36.3C43 41.7 86 52.3 128.8 59C171.7 65.7 214.3 68.3 257.2 66.7C300 65 343 59 385.8 58.7C428.7 58.3 471.3 63.7 514.2 61.7C557 59.7 600 50.3 642.8 45.3C685.7 40.3 728.3 39.7 771.2 43C814 46.3 857 53.7 878.5 57.3L900 61L900 0L878.5 0C857 0 814 0 771.2 0C728.3 0 685.7 0 642.8 0C600 0 557 0 514.2 0C471.3 0 428.7 0 385.8 0C343 0 300 0 257.2 0C214.3 0 171.7 0 128.8 0C86 0 43 0 21.5 0L0 0Z" fill="#5c213a"></path></svg>